<svg xmlns:xlink="http://www.w3.org/1999/xlink" xmlns="http://www.w3.org/2000/svg" width="163" height="40" viewBox="0 0 163 40" fill="none">
<g clip-path="url(#clip0_1867:15719)">
<path d="M134.825 9.30365C136.427 9.30365 137.725 8.00522 137.725 6.40353C137.725 4.80184 136.427 3.50342 134.825 3.50342C133.223 3.50342 131.925 4.80184 131.925 6.40353C131.925 8.00522 133.223 9.30365 134.825 9.30365Z" fill="#D3DAE3"/>
<path d="M72.1167 32.8058C65.7354 32.8058 61.1035 28.3326 61.1035 22.1705C61.1035 16.0083 65.7354 11.5701 72.1167 11.5701C75.2279 11.5701 78.0439 12.6241 80.0535 14.5384C82.0631 16.4528 83.1774 19.1704 83.1774 22.1689C83.1774 25.1674 82.0662 27.8834 80.0566 29.8168C78.047 31.7502 75.2247 32.8058 72.1167 32.8058ZM72.1167 16.1956C68.8006 16.1956 66.4831 18.6513 66.4831 22.1689C66.4831 25.6865 68.8006 28.1406 72.1167 28.1406C75.5088 28.1406 77.7883 25.7405 77.7883 22.1689C77.7883 18.5973 75.5088 16.1909 72.1167 16.1909V16.1956Z" fill="#D3DAE3"/>
<path d="M90.8831 3.96021H85.54V32.5423H90.8831V3.96021Z" fill="#D3DAE3"/>
<path d="M98.929 3.96021H93.5859V32.5423H98.929V3.96021Z" fill="#D3DAE3"/>
<path d="M112.314 32.8058C105.933 32.8058 101.301 28.3326 101.301 22.1705C101.301 16.0083 105.933 11.5701 112.314 11.5701C115.425 11.5701 118.241 12.6241 120.251 14.5384C122.26 16.4528 123.371 19.172 123.371 22.1705C123.371 25.169 122.26 27.885 120.251 29.8184C118.241 31.7518 115.422 32.8058 112.314 32.8058ZM112.314 16.1956C108.998 16.1956 106.68 18.6513 106.68 22.1689C106.68 25.6865 108.998 28.1406 112.314 28.1406C115.706 28.1406 117.986 25.7405 117.986 22.1689C117.986 18.5973 115.706 16.1909 112.314 16.1909V16.1956Z" fill="#D3DAE3"/>
<path d="M137.495 11.5688H132.152V32.5427H137.495V11.5688Z" fill="#D3DAE3"/>
<path d="M151.214 32.8058C144.831 32.8058 140.199 28.3326 140.199 22.1705C140.199 16.0083 144.831 11.5701 151.214 11.5701C154.325 11.5701 157.141 12.6241 159.151 14.5384C161.16 16.4528 162.272 19.172 162.272 22.1705C162.272 25.169 161.16 27.885 159.151 29.8184C157.141 31.7518 154.322 32.8058 151.214 32.8058ZM151.214 16.1956C147.896 16.1956 145.58 18.6513 145.58 22.1689C145.58 25.6865 147.896 28.1406 151.214 28.1406C154.606 28.1406 156.886 25.7405 156.886 22.1689C156.886 18.5973 154.609 16.1909 151.214 16.1909V16.1956Z" fill="#D3DAE3"/>
<path d="M37.2012 40.0014V11.4177H42.5411V12.9368C44.2895 12.0191 46.2382 11.5489 48.2127 11.5685C51.324 11.5685 54.14 12.6225 56.1496 14.5369C58.1592 16.4513 59.2703 19.1704 59.2703 22.1689C59.2703 25.1675 58.1592 27.8835 56.1496 29.8169C54.14 31.7503 51.3256 32.8059 48.2127 32.8059C46.2372 32.8255 44.2879 32.3525 42.5411 31.4296V40.0014H37.2012ZM48.2159 16.1909C44.8999 16.1909 42.5823 18.6466 42.5823 22.1642C42.5823 25.6818 44.8999 28.1358 48.2159 28.1358C51.6081 28.1358 53.8876 25.7358 53.8876 22.1642C53.8876 18.5926 51.6081 16.1909 48.2159 16.1909Z" fill="#D3DAE3"/>
<path d="M127.045 32.5408C126.59 32.5408 126.145 32.406 125.767 32.1534C125.389 31.9007 125.095 31.5417 124.921 31.1216C124.747 30.7015 124.702 30.2393 124.79 29.7933C124.879 29.3474 125.098 28.9379 125.42 28.6165C125.741 28.2951 126.151 28.0763 126.597 27.9878C127.043 27.8993 127.505 27.9451 127.925 28.1193C128.345 28.2935 128.704 28.5883 128.956 28.9665C129.209 29.3447 129.343 29.7893 129.343 30.2439C129.343 30.8533 129.1 31.4375 128.669 31.8682C128.238 32.2989 127.654 32.5408 127.045 32.5408Z" fill="#D3DAE3"/>
<path d="M30.1075 6.28589H25.0645L27.6788 10.8131L30.1075 6.28589Z" fill="#D3DAE3"/>
<path d="M32.9505 24.4613L29.5377 18.5484L18.7896 0L0 32.541H10.0623C11.4069 32.5391 12.7278 32.1867 13.8947 31.5187C15.0616 30.8506 16.0342 29.8899 16.7165 28.7313L21.8596 19.7579L19.0023 14.8085L12.7926 25.6185C12.4403 26.2182 11.9377 26.7157 11.3345 27.062C10.7313 27.4082 10.0483 27.5913 9.35275 27.5932H8.58764L18.7912 9.91627L31.8536 32.541H35.557V28.9392L32.9632 24.4613H32.9505Z" fill="#D3DAE3"/>
</g>
<defs>
<clipPath id="clip0_1867:15719">
<rect width="162.267" height="40" fill="white"/>
</clipPath>
</defs>
</svg>