<svg xmlns="http://www.w3.org/2000/svg" xmlns:xlink="http://www.w3.org/1999/xlink" enable-background="new 0 0 21 17" viewBox="0 0 21 17" width="21"  height="17" ><mask id="a" height="24" maskUnits="userSpaceOnUse" width="24" x="0" y="0"><path d="m20.5 6.7c.9-.5 1.6-1.4 1.9-2.4-.8.5-1.8.9-2.7 1-1.6-1.7-4.3-1.8-6.1-.2-1.1 1.1-1.6 2.6-1.2 4.1-3.5-.1-6.8-1.7-8.9-4.4-.4.6-.6 1.4-.6 2.1 0 1.4.7 2.8 1.9 3.6-.7 0-1.3-.2-1.9-.5 0 2.1 1.5 3.8 3.4 4.2-.6.2-1.3.2-1.9.1.6 1.7 2.2 2.9 4 3-1.6 1.2-3.4 1.8-5.4 1.8-.3 0-.7 0-1-.1 2 1.3 4.2 2 6.6 2 7.9 0 12.2-6.5 12.2-12.2 0-.2 0-.4 0-.6.8-.6 1.6-1.4 2.1-2.2-.8.4-1.6.6-2.4.7z" fill="#fff"/></mask><g transform="translate(-2 -4)"><path d="m20.5 6.7c.9-.5 1.6-1.4 1.9-2.4-.8.5-1.8.9-2.7 1-1.6-1.7-4.3-1.8-6.1-.2-1.1 1.1-1.6 2.6-1.2 4.1-3.5-.1-6.8-1.7-8.9-4.4-.4.6-.6 1.4-.6 2.1 0 1.4.7 2.8 1.9 3.6-.7 0-1.3-.2-1.9-.5 0 2.1 1.5 3.8 3.4 4.2-.6.2-1.3.2-1.9.1.6 1.7 2.2 2.9 4 3-1.6 1.2-3.4 1.8-5.4 1.8-.3 0-.7 0-1-.1 2 1.3 4.2 2 6.6 2 7.9 0 12.2-6.5 12.2-12.2 0-.2 0-.4 0-.6.8-.6 1.6-1.4 2.1-2.2-.8.4-1.6.6-2.4.7z" fill="#b0b6c5"/><g mask="url(#a)"><path d="m0 0h24v24h-24z" fill="#b0b6c5"/></g></g></svg>