<svg xmlns="http://www.w3.org/2000/svg" xmlns:xlink="http://www.w3.org/1999/xlink" enable-background="new 0 0 18 18" viewBox="0 0 18 18" width="18"  height="18" ><mask id="a" height="24" maskUnits="userSpaceOnUse" width="24" x="0" y="0"><path d="m5 3h14c1.1 0 2 .9 2 2v14c0 1.1-.9 2-2 2h-14c-1.1 0-2-.9-2-2v-14c0-1.1.9-2 2-2zm13 2h-2.5c-1.9 0-3.5 1.6-3.5 3.5v2.5h-2v3h2v7h3v-7h3v-3h-3v-2c0-.6.4-1 1-1h2z" fill="#fff"/></mask><g transform="translate(-3 -3)"><path d="m5 3h14c1.1 0 2 .9 2 2v14c0 1.1-.9 2-2 2h-14c-1.1 0-2-.9-2-2v-14c0-1.1.9-2 2-2zm13 2h-2.5c-1.9 0-3.5 1.6-3.5 3.5v2.5h-2v3h2v7h3v-7h3v-3h-3v-2c0-.6.4-1 1-1h2z" fill="#b0b6c5"/><g mask="url(#a)"><path d="m0 0h24v24h-24z" fill="#b0b6c5"/></g></g></svg>