<svg xmlns="http://www.w3.org/2000/svg" xmlns:xlink="http://www.w3.org/1999/xlink" enable-background="new 0 0 18 18" viewBox="0 0 18 18" width="18"  height="18" ><mask id="a" height="24" maskUnits="userSpaceOnUse" width="24" x="0" y="0"><path d="m19 3c1.1 0 2 .9 2 2v14c0 1.1-.9 2-2 2h-14c-1.1 0-2-.9-2-2v-14c0-1.1.9-2 2-2zm-.5 15.5v-5.3c0-1.8-1.5-3.3-3.3-3.3-.9 0-1.8.5-2.3 1.3v-1.1h-2.8v8.4h2.8v-4.9c0-.8.7-1.4 1.4-1.4s1.3.6 1.4 1.4v4.9zm-11.6-9.9c.9 0 1.7-.8 1.7-1.7s-.8-1.7-1.7-1.7-1.7.7-1.7 1.7.7 1.7 1.7 1.7zm1.4 9.9v-8.4h-2.8v8.4z" fill="#fff"/></mask><g transform="translate(-3 -3)"><path d="m19 3c1.1 0 2 .9 2 2v14c0 1.1-.9 2-2 2h-14c-1.1 0-2-.9-2-2v-14c0-1.1.9-2 2-2zm-.5 15.5v-5.3c0-1.8-1.5-3.3-3.3-3.3-.9 0-1.8.5-2.3 1.3v-1.1h-2.8v8.4h2.8v-4.9c0-.8.7-1.4 1.4-1.4s1.3.6 1.4 1.4v4.9zm-11.6-9.9c.9 0 1.7-.8 1.7-1.7s-.8-1.7-1.7-1.7-1.7.7-1.7 1.7.7 1.7 1.7 1.7zm1.4 9.9v-8.4h-2.8v8.4z" fill="#b0b6c5"/><g mask="url(#a)"><path d="m0 0h24v24h-24z" fill="#b0b6c5"/></g></g></svg>