<svg xmlns:xlink="http://www.w3.org/1999/xlink" xmlns="http://www.w3.org/2000/svg" width="27" height="27" viewBox="0 0 27 27">
    <g fill="none" fill-rule="nonzero">
        <path fill="#3C325E" d="M9.752 22.001L2 22a2 2 0 0 1-2-2V2a2 2 0 0 1 2-2h15a2 2 0 0 1 2 2v8.132a8.552 8.552 0 0 0-2-.118V2H2v18h7.132c.125.701.335 1.371.62 2.001zM7 14a1 1 0 0 1 1 1v2a1 1 0 0 1-1 1H5a1 1 0 0 1-1-1v-2a1 1 0 0 1 1-1h2zm0-5a1 1 0 0 1 1 1v2a1 1 0 0 1-1 1H5a1 1 0 0 1-1-1v-2a1 1 0 0 1 1-1h2zm7 0a1 1 0 0 1 1 1v.374a8.502 8.502 0 0 0-3.714 2.326A.994.994 0 0 1 11 12v-2a1 1 0 0 1 1-1h2zM7 4a1 1 0 0 1 1 1v2a1 1 0 0 1-1 1H5a1 1 0 0 1-1-1V5a1 1 0 0 1 1-1h2zm7 0a1 1 0 0 1 1 1v2a1 1 0 0 1-1 1h-2a1 1 0 0 1-1-1V5a1 1 0 0 1 1-1h2z"/>
        <path fill="#FFF" d="M22.682 13.282a7.002 7.002 0 0 1 .657 9.143l2.879 2.878a1 1 0 1 1-1.415 1.415l-2.88-2.878a7.002 7.002 0 0 1-9.14-10.558 7 7 0 0 1 9.899 0zm-1.414 1.415a5 5 0 1 0-7.071 7.07 5 5 0 0 0 7.07-7.07z"/>
    </g>
</svg>