<svg xmlns="http://www.w3.org/2000/svg" xmlns:xlink="http://www.w3.org/1999/xlink" width="22" height="22" viewBox="0 0 22 22" version="1.1">
    <!-- Generator: Sketch 55.2 (78181) - https://sketchapp.com -->
    <title>g-logo</title>
    <desc>Created with Sketch.</desc>
    <defs>
        <path d="M21.744186,9 L11.255814,9 L11.255814,13.25 L17.2930233,13.25 C16.7302326,15.95 14.3767442,17.5 11.255814,17.5 C7.57209302,17.5 4.60465116,14.6 4.60465116,11 C4.60465116,7.4 7.57209302,4.5 11.255814,4.5 C12.8418605,4.5 14.2744186,5.05 15.4,5.95 L18.6744186,2.75 C16.6790698,1.05 14.1209302,0 11.255814,0 C5.01395349,0 0,4.9 0,11 C0,17.1 5.01395349,22 11.255814,22 C16.8837209,22 22,18 22,11 C22,10.35 21.8976744,9.65 21.744186,9 Z" id="path-1"/>
        <path d="M21.744186,9 L11.255814,9 L11.255814,13.25 L17.2930233,13.25 C16.7302326,15.95 14.3767442,17.5 11.255814,17.5 C7.57209302,17.5 4.60465116,14.6 4.60465116,11 C4.60465116,7.4 7.57209302,4.5 11.255814,4.5 C12.8418605,4.5 14.2744186,5.05 15.4,5.95 L18.6744186,2.75 C16.6790698,1.05 14.1209302,0 11.255814,0 C5.01395349,0 0,4.9 0,11 C0,17.1 5.01395349,22 11.255814,22 C16.8837209,22 22,18 22,11 C22,10.35 21.8976744,9.65 21.744186,9 Z" id="path-3"/>
        <path d="M21.744186,9 L11.255814,9 L11.255814,13.25 L17.2930233,13.25 C16.7302326,15.95 14.3767442,17.5 11.255814,17.5 C7.57209302,17.5 4.60465116,14.6 4.60465116,11 C4.60465116,7.4 7.57209302,4.5 11.255814,4.5 C12.8418605,4.5 14.2744186,5.05 15.4,5.95 L18.6744186,2.75 C16.6790698,1.05 14.1209302,0 11.255814,0 C5.01395349,0 0,4.9 0,11 C0,17.1 5.01395349,22 11.255814,22 C16.8837209,22 22,18 22,11 C22,10.35 21.8976744,9.65 21.744186,9 Z" id="path-5"/>
        <path d="M21.744186,9 L11.255814,9 L11.255814,13.25 L17.2930233,13.25 C16.7302326,15.95 14.3767442,17.5 11.255814,17.5 C7.57209302,17.5 4.60465116,14.6 4.60465116,11 C4.60465116,7.4 7.57209302,4.5 11.255814,4.5 C12.8418605,4.5 14.2744186,5.05 15.4,5.95 L18.6744186,2.75 C16.6790698,1.05 14.1209302,0 11.255814,0 C5.01395349,0 0,4.9 0,11 C0,17.1 5.01395349,22 11.255814,22 C16.8837209,22 22,18 22,11 C22,10.35 21.8976744,9.65 21.744186,9 Z" id="path-7"/>
    </defs>
    <g id="Symbols" stroke="none" stroke-width="1" fill="none" fill-rule="evenodd">
        <g id="Components-/-Google-Sign-Up-Button" transform="translate(-38.000000, -14.000000)">
            <g id="google-sign-in-button">
                <g id="Content" transform="translate(38.000000, 14.000000)">
                    <g id="g-logo">
                        <g id="Clipped">
                            <mask id="mask-2" fill="white">
                                <use xlink:href="#path-1"/>
                            </mask>
                            <g id="a"/>
                            <polygon id="Path" fill="#FBBC05" fill-rule="nonzero" mask="url(#mask-2)" points="-1.02325581 17.5 -1.02325581 4.5 7.6744186 11"/>
                        </g>
                        <g id="Clipped">
                            <mask id="mask-4" fill="white">
                                <use xlink:href="#path-3"/>
                            </mask>
                            <g id="a"/>
                            <polygon id="Path" fill="#EA4335" fill-rule="nonzero" mask="url(#mask-4)" points="-1.02325581 4.5 7.6744186 11 11.255814 7.95 23.5348837 6 23.5348837 -1 -1.02325581 -1"/>
                        </g>
                        <g id="Clipped">
                            <mask id="mask-6" fill="white">
                                <use xlink:href="#path-5"/>
                            </mask>
                            <g id="a"/>
                            <polygon id="Path" fill="#34A853" fill-rule="nonzero" mask="url(#mask-6)" points="-1.02325581 17.5 14.3255814 6 18.3674419 6.5 23.5348837 -1 23.5348837 23 -1.02325581 23"/>
                        </g>
                        <g id="Clipped">
                            <mask id="mask-8" fill="white">
                                <use xlink:href="#path-7"/>
                            </mask>
                            <g id="a"/>
                            <polygon id="Path" fill="#4285F4" fill-rule="nonzero" mask="url(#mask-8)" points="23.5348837 23 7.6744186 11 5.62790698 9.5 23.5348837 4.5"/>
                        </g>
                    </g>
                </g>
            </g>
        </g>
    </g>
</svg>