<svg xmlns:xlink="http://www.w3.org/1999/xlink" xmlns="http://www.w3.org/2000/svg" width="28" height="27" viewBox="0 0 28 27">
    <g fill="none" fill-rule="nonzero">
        <path fill="#5E324F" d="M9 0a6 6 0 0 1 2.704 11.358c.5.143.973.33 1.417.56a8.55 8.55 0 0 0-1.464 1.539C10.877 13.15 9.991 13 9 13c-4.102 0-6.391 2.576-7.006 8.11a1 1 0 1 1-1.988-.22c.584-5.257 2.705-8.503 6.29-9.533A6 6 0 0 1 9 0zm0 2a4 4 0 1 0 0 8 4 4 0 0 0 0-8z"/>
        <path fill="#FFF" d="M23.682 13.282a7.002 7.002 0 0 1 .657 9.143l2.879 2.878a1 1 0 1 1-1.415 1.415l-2.88-2.878a7.002 7.002 0 0 1-9.14-10.558 7 7 0 0 1 9.899 0zm-1.414 1.415a5 5 0 1 0-7.071 7.07 5 5 0 0 0 7.07-7.07z"/>
    </g>
</svg>