<svg xmlns:xlink="http://www.w3.org/1999/xlink" xmlns="http://www.w3.org/2000/svg" width="131" height="46" viewBox="0 0 131 46" fill="none">
<path fill-rule="evenodd" clip-rule="evenodd" d="M37.8625 30.5471C41.7657 30.5424 45.6695 30.543 49.5736 30.5436C53.4778 30.5441 57.3823 30.5447 61.2868 30.5401C62.0154 30.5238 62.8903 30.6216 63.3241 31.2738C63.9305 32.2334 63.6501 33.4376 63.3145 34.4438C62.3096 37.2331 61.3017 40.0194 60.2932 42.8075L60.2901 42.8161L59.5011 44.9973C58.1829 44.9997 56.8646 44.9997 55.5439 44.9973C56.0408 43.5862 56.5423 42.1758 57.0438 40.7655L57.0441 40.7649L57.0443 40.7643L57.0445 40.7637L57.0447 40.7632L57.0449 40.7626L57.045 40.7622L57.0451 40.7619L57.0452 40.7617L57.0453 40.7614L57.0454 40.7611C57.7337 38.8254 58.4221 36.8897 59.0985 34.9515C59.271 34.5929 59.156 33.9989 58.6479 34.0315C57.532 34.0028 56.4152 34.0068 55.298 34.0109C54.6035 34.0134 53.9089 34.0159 53.2142 34.0106C52.4856 33.9453 51.8336 34.4694 51.6347 35.1309C50.8696 37.3597 50.0893 39.5821 49.3091 41.8039L49.3083 41.806L49.3076 41.8082L49.3068 41.8104L49.3061 41.8125L49.3053 41.8147C48.9331 42.8747 48.5609 43.9346 48.1904 44.995C46.841 44.9997 45.4964 44.9997 44.147 44.9973C44.6586 43.541 45.1765 42.0861 45.6944 40.6312L45.6949 40.6299C46.3365 38.8274 46.9781 37.0248 47.608 35.2194C47.7782 34.7838 47.7902 33.9779 47.1143 34.0199C45.2975 34.0059 43.4783 34.0059 41.6614 34.0199C40.9784 34.0082 40.475 34.5696 40.3 35.1612C39.2634 37.969 38.2729 40.7906 37.2826 43.6112L37.2824 43.6118L37.2786 43.6227C37.1186 44.0786 36.9585 44.5345 36.7983 44.9904C35.8089 45.0023 34.8208 45.0005 33.8312 44.9987L33.8302 44.9987C33.4704 44.998 33.1104 44.9973 32.75 44.9973C33.5498 42.7291 34.3534 40.4625 35.1569 38.1959L35.1581 38.1926L35.1591 38.1899C36.062 35.6429 36.9649 33.0959 37.8625 30.5471ZM3.92305 32.1912C4.2974 31.0426 5.51678 30.565 6.57198 30.5533C9.11339 30.535 11.6558 30.5377 14.1984 30.5404C15.5304 30.5418 16.8624 30.5433 18.1944 30.5417L18.1939 30.5434C17.8088 31.7007 17.4237 32.8581 17.0364 34.0107C13.9474 34.0084 10.8562 34.0061 7.76947 34.0107C7.08644 33.9711 6.6289 34.719 6.57417 35.369C6.51944 35.6602 6.71428 36.0004 7.02077 35.9491C8.13419 35.961 9.24875 35.9584 10.3633 35.9557H10.3633H10.3633H10.3633H10.3633H10.3634C11.4314 35.9531 12.4995 35.9505 13.5665 35.9608C14.1992 35.9724 14.9041 36.1029 15.3353 36.6458C15.9308 37.4123 15.9155 38.5352 15.6068 39.4252C15.3565 40.1066 15.1124 40.7907 14.8682 41.4749L14.8682 41.475L14.8682 41.4751L14.8682 41.4751L14.8681 41.4752L14.8681 41.4752C14.6532 42.0776 14.4382 42.6801 14.2189 43.281C13.7832 44.4762 12.5003 44.9911 11.3773 44.9934C8.34254 45.0028 5.3106 45.0002 2.27698 44.9976L2.26652 44.9975C1.51114 44.9969 0.755658 44.9962 0 44.9958C0.116193 44.6233 0.236054 44.2525 0.355873 43.8819L0.355883 43.8819C0.606296 43.1073 0.856528 42.3332 1.07271 41.5453C2.33133 41.5366 3.58995 41.5396 4.84873 41.5425H4.84885H4.84897H4.84908H4.8492H4.84931C6.62933 41.5466 8.40965 41.5507 10.1907 41.522C10.9613 41.5383 11.6969 40.8953 11.7254 40.0543C11.837 39.586 11.3204 39.4066 10.9832 39.4322C9.96532 39.4177 8.94743 39.4214 7.92954 39.425H7.92938C6.82161 39.429 5.71384 39.433 4.60608 39.4136C3.71069 39.4206 2.76496 38.8661 2.47161 37.9318C2.2959 37.3809 2.46423 36.8213 2.62481 36.2875L2.62482 36.2874L2.62482 36.2874L2.62483 36.2874L2.62486 36.2873C2.65033 36.2026 2.67561 36.1186 2.69928 36.0353C2.88476 35.463 3.06541 34.8879 3.24614 34.3124L3.24614 34.3124L3.24614 34.3124L3.24615 34.3124L3.24615 34.3124L3.24615 34.3124C3.46858 33.6042 3.69115 32.8955 3.92305 32.1912ZM69.6837 30.5385C68.8519 30.5362 67.9771 30.62 67.267 31.0464C66.4936 31.5101 65.9966 32.272 65.7177 33.0642C64.932 35.1802 64.1393 37.2936 63.3465 39.4068C62.6475 41.2702 61.9486 43.1335 61.2546 44.9982C62.6772 45.0006 64.1023 45.0006 65.5275 44.9982C66.2365 43.1404 66.944 41.281 67.6512 39.4223C68.1883 38.0106 68.7253 36.5992 69.2627 35.1891C69.4681 34.553 70.064 33.9868 70.8375 34.0265C73.154 34.0014 75.4736 34.0052 77.7936 34.0091C79.1408 34.0113 80.4882 34.0136 81.8353 34.0101C82.1628 33.1235 82.4813 32.2342 82.8 31.3442C82.8959 31.0764 82.9918 30.8086 83.088 30.5408C80.5348 30.5382 77.9816 30.5385 75.4284 30.5389C73.5135 30.5392 71.5986 30.5395 69.6837 30.5385ZM84.0619 30.548C84.9763 30.5375 85.8932 30.5388 86.8099 30.5401C87.1154 30.5405 87.4208 30.541 87.7262 30.541C87.2768 31.9264 86.8226 33.3091 86.3684 34.6915L86.3675 34.6944L86.3668 34.6965C85.7256 36.6482 85.0846 38.5994 84.4579 40.5569C84.2831 40.9459 84.4845 41.5564 84.9536 41.5261C85.7835 41.5496 86.6133 41.546 87.4432 41.5424C88.0937 41.5396 88.7441 41.5368 89.3946 41.547C89.4831 41.5435 89.5731 41.5426 89.6637 41.5416C90.0514 41.5376 90.4509 41.5334 90.7952 41.3257C91.0498 41.1192 91.1587 40.7959 91.2652 40.4794L91.2652 40.4792C91.2957 40.3886 91.326 40.2986 91.3595 40.2121C91.7786 38.9033 92.2149 37.5998 92.6512 36.296C93.2907 34.3853 93.9305 32.4738 94.5171 30.5433C95.3872 30.5368 96.2563 30.5382 97.1273 30.5397L97.1273 30.5397C97.5011 30.5403 97.8753 30.541 98.25 30.541C97.6871 32.2593 97.127 33.9784 96.5669 35.6973L96.5655 35.7015L96.5643 35.7054L96.5631 35.7088C95.7021 38.3513 94.8412 40.9935 93.9705 43.6322C93.6962 44.5898 92.6783 45.0092 91.8043 44.9998C90.5978 44.999 89.3913 44.9991 88.1848 44.9992C86.1739 44.9994 84.1631 44.9995 82.1523 44.9952C81.4176 45.0045 80.5524 44.7645 80.2227 43.998C79.8775 43.2112 80.1357 42.3778 80.3802 41.5884L80.3803 41.5883C80.4304 41.4264 80.48 41.2664 80.5237 41.109C80.8986 39.9878 81.2692 38.865 81.6399 37.742L81.6402 37.7413C82.4333 35.3387 83.2265 32.9358 84.0619 30.548ZM101.977 30.5433C100.876 30.527 99.5736 30.958 99.1599 32.1532C98.898 32.9337 98.651 33.72 98.4039 34.5066L98.4035 34.5078C98.2377 35.0358 98.0717 35.5641 97.9012 36.0908C97.8793 36.168 97.8561 36.246 97.8326 36.3245L97.8325 36.325C97.6779 36.843 97.516 37.3858 97.6889 37.9197C97.9757 38.854 98.9125 39.4178 99.81 39.4108C101.086 39.434 102.362 39.4293 103.639 39.4247C104.422 39.4218 105.206 39.419 105.989 39.4225C106.027 39.4245 106.066 39.426 106.106 39.4275C106.381 39.4378 106.681 39.449 106.891 39.6671C107.156 40.6317 106.294 41.566 105.396 41.5241C103.692 41.5502 101.987 41.5463 100.282 41.5423H100.282C98.9514 41.5392 97.6212 41.5361 96.2924 41.5473C96.07 42.3562 95.8117 43.1538 95.5534 43.9511L95.5531 43.952L95.5528 43.9528C95.44 44.3009 95.3273 44.649 95.2176 44.9979C96.2486 44.9979 97.2795 44.9984 98.3105 44.999C101.06 45.0003 103.809 45.0017 106.556 44.9933C107.675 44.9956 108.951 44.5133 109.413 43.339C109.67 42.645 109.918 41.949 110.166 41.2528L110.167 41.2521L110.167 41.2501C110.379 40.657 110.59 40.0637 110.807 39.4714C111.133 38.5721 111.16 37.4258 110.555 36.6476C110.118 36.0977 109.404 35.9719 108.767 35.9603C107.823 35.9466 106.88 35.9514 105.937 35.9562C104.639 35.9629 103.342 35.9695 102.047 35.9277C101.393 35.3266 102.17 33.9333 102.984 34.0125C104.75 34.0072 106.516 34.0079 108.283 34.0087H108.283H108.283H108.283C109.608 34.0093 110.933 34.0098 112.258 34.0078C112.511 33.2427 112.766 32.4786 113.021 31.7135L113.021 31.7129L113.022 31.7118L113.025 31.7007C113.154 31.3144 113.283 30.928 113.412 30.541C112.269 30.541 111.125 30.5403 109.982 30.5397C107.314 30.5382 104.645 30.5368 101.977 30.5433ZM119.264 32.5597L119.263 32.5626L119.263 32.5635C118.895 33.6401 118.527 34.7162 118.165 35.7948C120.544 35.7972 122.919 35.7972 125.3 35.7948C125.498 35.2142 125.703 34.6356 125.907 34.057C126.319 32.8919 126.731 31.7265 127.093 30.5434L127.392 30.5423C128.593 30.5379 129.795 30.5334 131 30.5527V30.6995C129.952 33.5286 128.965 36.3801 127.978 39.2317L127.977 39.2337L127.977 39.2341C127.311 41.1583 126.645 43.0825 125.96 45C124.654 45 123.351 45 122.047 44.9977C122.413 43.9179 122.785 42.8416 123.156 41.7653L123.157 41.7622C123.463 40.8749 123.769 39.9877 124.072 39.0985C123.004 39.0912 121.935 39.0924 120.867 39.0935C119.561 39.0949 118.255 39.0963 116.949 39.0822C116.466 40.2922 116.06 41.5302 115.654 42.7686L115.654 42.7694C115.41 43.5148 115.166 44.2604 114.905 45C113.598 45 112.291 45 110.986 44.9977C111.596 43.2549 112.196 41.509 112.796 39.7633L112.796 39.7632C113.855 36.6829 114.914 33.603 116.026 30.5411C117.333 30.5388 118.644 30.5388 119.954 30.5388C119.725 31.2132 119.494 31.8866 119.264 32.5597ZM27.3495 36.1264C25.7269 36.1269 24.1053 36.1275 22.4848 36.1259C22.4993 36.0779 22.514 36.029 22.5288 35.9794C22.7675 35.1814 23.0594 34.2055 23.9947 34.0454C25.0025 33.9924 26.0112 34.0004 27.0201 34.0083C27.6975 34.0136 28.375 34.0189 29.0525 34.0058C29.084 34.006 29.1169 34.0059 29.1509 34.0058C29.5825 34.0044 30.1922 34.0025 30.2483 34.551C30.1934 34.9513 30.0588 35.3351 29.9247 35.7175C29.877 35.8536 29.8293 35.9895 29.7853 36.1259C28.9731 36.1259 28.1612 36.1262 27.3495 36.1264ZM22.4987 30.5508C21.3145 30.5368 20.1676 31.3056 19.7791 32.4332C18.7298 35.4736 17.6899 38.5139 16.6639 41.5589C16.3707 42.4163 16.1288 43.5089 16.8407 44.2335C17.6048 44.96 18.7156 44.9786 19.7234 44.9954C19.8079 44.9968 19.8917 44.9982 19.9745 45C22.338 44.9984 24.7016 44.999 27.0658 44.9995C28.2482 44.9997 29.4307 45 30.6136 45C31.0253 43.8491 31.4348 42.6958 31.8396 41.5426C30.4223 41.5397 29.0051 41.5408 27.588 41.542C25.6041 41.5436 23.6206 41.5451 21.6379 41.5356C21.2634 41.5915 20.8725 41.2933 20.9121 40.8949C20.9927 40.5308 21.1146 40.1764 21.2366 39.8221C21.273 39.7161 21.3095 39.6102 21.3448 39.5041H32.4841C32.7317 38.8111 32.9744 38.116 33.2172 37.4208C33.4193 36.8422 33.6214 36.2634 33.8265 35.6856C33.8579 35.5989 33.8899 35.5117 33.922 35.424C34.354 34.246 34.8178 32.9812 34.4151 31.7366C34.1731 30.8979 33.2634 30.4972 32.4515 30.5438C31.7143 30.5433 30.977 30.5423 30.2398 30.5413C27.6594 30.5379 25.0791 30.5345 22.4987 30.5508Z" fill="#7A7E8B"/>
<path fill-rule="evenodd" clip-rule="evenodd" d="M103.241 17.1798C101.196 18.7128 98.412 19.238 95.9323 18.554C93.5108 17.9188 91.4396 16.1558 90.4237 13.9104C89.2958 11.4919 89.441 8.55429 90.801 6.25795C92.0387 4.11225 94.2841 2.55692 96.7658 2.15995C99.0713 1.77112 101.526 2.38388 103.361 3.80892C105.399 5.35203 106.649 7.8377 106.657 10.3661C106.701 13.0004 105.393 15.6082 103.241 17.1798ZM106.809 5.03241C105.451 2.92947 103.409 1.17057 100.943 0.464155C100.127 0.219863 99.2807 0.0977168 98.4368 0H96.7907C92.9655 0.43769 89.1756 1.13392 85.3628 1.67951C83.2834 2.07852 81.1251 2.0093 79.0601 1.55329C80.0864 2.86839 81.6994 3.50559 83.2937 3.86388C84.0795 3.98399 84.8673 4.52551 84.9233 5.36424C84.9731 5.93426 84.3034 6.1073 83.8535 6.10119C83.244 6.14801 82.7257 5.78361 82.2488 5.46196C80.6441 4.30157 79.1037 3.00072 77.2336 2.25766C74.2875 1.01992 70.9537 1.00363 67.8583 1.65508C68.7726 2.13959 69.6993 2.60171 70.6116 3.08622C67.3959 2.67092 64.1285 2.3961 60.8942 2.82564C64.4084 3.76413 67.9308 4.67819 71.4077 5.74697C72.2163 6.01772 73.0705 6.21316 73.7878 6.6936C71.5176 7.26158 69.1292 7.35929 66.8216 6.9725C61.0186 5.97701 56.1589 2.25156 50.3827 1.18278C47.7476 0.655517 44.9985 0.787841 42.4007 1.45964C45.8236 1.8159 49.2694 2.51824 52.3399 4.10003C53.9218 4.89398 55.2819 6.02587 56.7145 7.04579C58.4996 8.3955 60.7055 9.19556 62.955 9.30549C66.9191 9.49685 70.8479 8.82301 74.7705 8.37514C76.1576 8.27742 77.6026 8.08403 78.9565 8.49729C79.9869 8.79044 79.8086 10.3091 79.0477 10.8079C78.1956 11.3575 77.1195 11.3331 76.143 11.4288C69.3593 11.7525 62.3434 11.0603 56.1526 8.1451C53.2376 6.91143 50.4055 5.33371 47.2189 4.88991C48.1125 5.72457 49.0268 6.53684 49.9391 7.35319C47.5673 6.5572 45.0047 6.5572 42.5375 6.80964C38.2459 7.27176 34.091 8.48914 29.9487 9.64139C28.7006 10.02 27.4338 10.3376 26.2002 10.7692C27.6473 11.2619 29.1981 11.3555 30.7178 11.2619C32.6605 11.1255 34.6011 10.9117 36.5458 10.8058C39.013 10.702 41.5341 10.9606 43.8333 11.8746C45.3758 12.4569 46.6695 13.5155 48.2058 14.1058C51.6163 15.5716 55.5597 15.5349 59.049 14.342C59.6482 14.1526 60.2204 13.8229 60.8652 13.8086C61.4809 13.8249 62.1153 13.9979 62.5901 14.3949C62.7892 14.5415 62.7746 14.857 62.5652 14.9893C61.9723 15.5146 61.1782 15.7263 60.4567 16.0215C56.8617 17.3712 52.8292 17.9697 49.0724 16.9254C51.2639 18.6374 54.2038 18.9469 56.9114 18.9469C61.0725 18.8878 65.2024 17.9351 69.0214 16.3248C71.6627 15.1909 74.2854 14.002 77.018 13.0839C78.123 12.7256 79.284 12.4182 80.4617 12.4996C80.9551 12.5464 81.5791 12.7765 81.687 13.3119C81.5708 13.8982 80.9323 14.1567 80.4492 14.4092C77.5487 15.6306 74.36 16.0948 71.5363 17.5178C74.8908 17.5381 78.2474 17.5096 81.6019 17.53C85.5474 17.7234 89.4824 18.4298 93.2039 19.7347C94.6801 20.2803 96.2164 20.7383 97.8045 20.7791C99.884 20.8747 101.968 20.2355 103.659 19.0568C105.886 17.5157 107.731 15.256 108.239 12.579C108.71 10.0078 108.229 7.2514 106.809 5.03241Z" fill="#7A7E8B"/>
<path fill-rule="evenodd" clip-rule="evenodd" d="M99.24 5.23111C98.9436 5.52753 98.678 5.8557 98.4392 6.20293C100.677 6.66237 102.528 8.62083 102.859 10.9519C103.125 12.5039 102.678 14.1024 101.822 15.3876C103.557 13.8801 104.319 11.2843 103.543 9.06334C102.923 7.09853 101.196 5.6228 99.24 5.23111ZM96.7865 3.87696C99.7504 3.09386 103.088 4.58046 104.522 7.28691C105.477 9.02092 105.657 11.1615 105.003 13.0333C104.338 14.9932 102.755 16.6175 100.81 17.3102C99.3043 17.8674 97.6057 17.8717 96.098 17.3231C94.1185 16.6304 92.5078 14.9695 91.858 12.9709C91.2811 11.2842 91.384 9.37805 92.1218 7.75591C92.9818 5.84333 94.7469 4.36102 96.7865 3.87696Z" fill="#7A7E8B"/>
</svg>