<svg xmlns:xlink="http://www.w3.org/1999/xlink" xmlns="http://www.w3.org/2000/svg" width="24" height="24" viewBox="0 0 24 24" fill="none">
<path d="M6.363 10.1379L2.66617 4.45699C4.96943 1.59232 8.42432 0.0148111 11.9566 0.000294166C14.0034 -0.0142228 16.0938 0.508386 17.9954 1.60683C20.0955 2.82625 21.6923 4.57796 22.7084 6.59097L12.7744 6.06837C9.96305 5.90384 7.2872 7.48619 6.363 10.1379ZM7.95496 12.0009C7.95496 14.2366 9.76466 16.0463 12.0002 16.0463C14.2357 16.0463 16.0454 14.2366 16.0454 12.0009C16.0454 9.76534 14.2357 7.95556 12.0002 7.95556C9.76466 7.95556 7.95496 9.7605 7.95496 12.0009ZM23.1923 7.68458L16.4325 8.03299C18.2664 10.1767 18.2954 13.2688 16.7519 15.6399L11.3276 23.9822C13.5776 24.1032 15.8954 23.6096 17.9954 22.3902C23.1923 19.3901 25.2971 13.0994 23.1923 7.68458ZM6.46945 14.3043L1.95487 5.42478C0.720978 7.31198 0 9.57662 0 12.0009C0 18.0013 4.39361 22.9709 10.1372 23.8516L13.2196 17.8126C10.4324 18.3352 7.74205 16.806 6.46945 14.3043Z" fill="url(#paint0_linear)"/>
<defs>
<linearGradient id="paint0_linear" x1="0" y1="24" x2="24" y2="24" gradientUnits="userSpaceOnUse">
<stop stop-color="#F9A854"/>
<stop offset="0.5" stop-color="#F25663"/>
<stop offset="1" stop-color="#F25A89"/>
</linearGradient>
</defs>
</svg>