<svg xmlns:xlink="http://www.w3.org/1999/xlink" xmlns="http://www.w3.org/2000/svg" width="91" height="45" viewBox="0 0 91 45" fill="none">
<path fill-rule="evenodd" clip-rule="evenodd" d="M25.888 0L21.625 4.3675L16.3935 0.819L14.3005 6.3155L4.883 4.7545L7.848 11.3155L0.915 13.9005L5.232 20.1805L0 27.4495L9.4175 28.3365L0.9705 44.3995L14.2625 34.3645L17.6365 40.039L21.1245 35.072L27.0225 40.8555L31.0675 35.4665L38.907 37.526L39.075 30.1095L46.344 29.054L43.5445 22.1385L48.3965 17.9745L43.478 13.709L44.9435 7.7695L36.649 8.301L35.003 1.7055L29.01 5.248L25.8885 0H25.888Z" fill="#7A7E8B"/>
<path fill-rule="evenodd" clip-rule="evenodd" d="M24.8143 19.8425L24.2833 26.8275C23.5873 27.1815 22.7713 27.454 21.8338 27.644C20.8953 27.834 19.8888 27.929 18.8133 27.929C17.4093 27.929 16.1928 27.654 15.1633 27.103C14.1338 26.552 13.3398 25.765 12.7828 24.742C12.2248 23.7185 11.9463 22.5185 11.9463 21.141C11.9463 19.6195 12.2578 18.288 12.8813 17.147C13.5038 16.006 14.3893 15.124 15.5373 14.5005C16.6848 13.878 18.0263 13.566 19.5608 13.566C21.7123 13.566 23.4303 14.078 24.7163 15.101L23.3778 17.7175C22.8138 17.285 22.2563 16.967 21.7058 16.7635C21.1548 16.5605 20.5183 16.4585 19.7968 16.4585C18.4718 16.4585 17.4523 16.872 16.7373 17.698C16.0228 18.524 15.6653 19.679 15.6653 21.161C15.6653 22.4465 15.9703 23.43 16.5803 24.1125C17.1898 24.7945 18.1113 25.135 19.3443 25.135C19.8953 25.135 20.4858 25.0565 21.1153 24.899L21.3123 22.3415H18.8528L19.0493 19.8425H24.8143Z" fill="white"/>
<path fill-rule="evenodd" clip-rule="evenodd" d="M29.9887 27.1324C28.9392 26.5884 28.1322 25.8044 27.5687 24.7814C27.0047 23.7579 26.7227 22.5584 26.7227 21.1809C26.7227 19.6594 27.0142 18.3209 27.5982 17.1669C28.1817 16.0129 29.0112 15.1204 30.0872 14.4909C31.1622 13.8614 32.4087 13.5469 33.8252 13.5469C35.2287 13.5469 36.4552 13.8194 37.5047 14.3629C38.5537 14.9079 39.3607 15.6914 39.9247 16.7144C40.4887 17.7374 40.7707 18.9374 40.7707 20.3149C40.7707 21.8369 40.4787 23.1744 39.8952 24.3289C39.3117 25.4834 38.4817 26.3749 37.4062 27.0049C36.3307 27.6344 35.0847 27.9494 33.6677 27.9494C32.2642 27.9494 31.0377 27.6774 29.9887 27.1324ZM36.1567 23.8369C36.7797 22.9844 37.0917 21.8104 37.0917 20.3149C37.0917 19.0689 36.8092 18.1014 36.2457 17.4129C35.6812 16.7244 34.8942 16.3799 33.8847 16.3799C32.7957 16.3799 31.9432 16.8064 31.3267 17.6584C30.7097 18.5119 30.4017 19.6854 30.4017 21.1809C30.4017 22.4399 30.6802 23.4109 31.2382 24.0929C31.7952 24.7749 32.5922 25.1154 33.6287 25.1154C34.6912 25.1154 35.5337 24.6899 36.1567 23.8369Z" fill="white"/>
<path fill-rule="evenodd" clip-rule="evenodd" d="M52.5563 13.7432H55.9993L54.8978 27.7527H52.1433L46.4373 19.9412L45.8073 27.7527H42.3838L43.4858 13.7432H46.1813L51.9073 21.5742L52.5563 13.7432Z" fill="#7A7E8B"/>
<path fill-rule="evenodd" clip-rule="evenodd" d="M70.5008 19.8425L69.9698 26.8275C69.2743 27.1815 68.4578 27.454 67.5203 27.644C66.5823 27.834 65.5753 27.929 64.4998 27.929C63.0958 27.929 61.8798 27.654 60.8498 27.103C59.8203 26.552 59.0268 25.765 58.4693 24.742C57.9113 23.7185 57.6328 22.5185 57.6328 21.141C57.6328 19.6195 57.9443 18.288 58.5678 17.147C59.1903 16.006 60.0758 15.124 61.2238 14.5005C62.3713 13.878 63.7128 13.566 65.2473 13.566C67.3988 13.566 69.1168 14.078 70.4028 15.101L69.0643 17.7175C68.5008 17.285 67.9428 16.967 67.3923 16.7635C66.8413 16.5605 66.2048 16.4585 65.4838 16.4585C64.1583 16.4585 63.1388 16.872 62.4238 17.698C61.7093 18.524 61.3518 19.679 61.3518 21.161C61.3518 22.4465 61.6568 23.43 62.2668 24.1125C62.8763 24.7945 63.7978 25.135 65.0313 25.135C65.5818 25.135 66.1723 25.0565 66.8018 24.899L66.9988 22.3415H64.5393L64.7358 19.8425H70.5008Z" fill="#7A7E8B"/>
</svg>