<svg xmlns:xlink="http://www.w3.org/1999/xlink" xmlns="http://www.w3.org/2000/svg" width="158" height="44" viewBox="0 0 158 44" fill="none">
<path fill-rule="evenodd" clip-rule="evenodd" d="M60.3706 29.9133C60.3706 28.2801 59.0853 26.9385 57.4493 26.9385C55.8133 26.9385 54.528 28.2801 54.528 29.9133C54.528 31.5466 55.8133 32.8591 57.4493 32.8591C59.0853 32.8591 60.3706 31.5466 60.3706 29.9133ZM65.4543 29.9424C65.4543 34.1713 61.8901 37.5544 57.4493 37.5544C53.0085 37.5544 49.4443 34.1713 49.4443 29.9424C49.4443 25.6845 53.0085 22.2428 57.4493 22.2428C61.8901 22.2428 65.4543 25.6845 65.4543 29.9424Z" fill="#7A7E8B"/>
<path fill-rule="evenodd" clip-rule="evenodd" d="M81.3929 26.8509C81.3929 23.9927 79.4061 21.5138 76.4848 21.5138H72.4239V32.305H76.4848C79.4061 32.305 81.3929 29.709 81.3929 26.8509ZM86.8852 26.8509C86.8852 32.9464 82.6199 37.117 76.6017 37.117H67.8956C67.4866 37.117 67.165 36.7964 67.165 36.3881V17.4017C67.165 17.0225 67.4866 16.7018 67.8956 16.7018H76.6017C82.6199 16.7018 86.8852 20.7557 86.8852 26.8509Z" fill="#7A7E8B"/>
<path fill-rule="evenodd" clip-rule="evenodd" d="M95.3868 32.8882C97.0228 32.8882 98.3081 31.5466 98.3081 29.9133C98.3081 28.2801 97.0228 26.9385 95.3868 26.9385C93.7508 26.9385 92.4651 28.2801 92.4651 29.9133C92.4651 31.5466 93.7508 32.8882 95.3868 32.8882ZM94.6271 22.2428C96.3509 22.2428 97.7239 22.8845 98.3372 23.7888V23.3514C98.3372 22.9722 98.6589 22.6806 99.0092 22.6806H102.661C103.041 22.6806 103.333 22.9722 103.333 23.3514V36.4462C103.333 36.8254 103.041 37.117 102.661 37.117H99.0092C98.6297 37.117 98.3372 36.8254 98.3372 36.4462V36.0088C97.7239 36.9131 96.3217 37.5544 94.5979 37.5544C90.9169 37.5544 87.3818 34.609 87.3818 29.8548C87.3818 25.1013 90.946 22.2428 94.6271 22.2428Z" fill="#7A7E8B"/>
<path fill-rule="evenodd" clip-rule="evenodd" d="M112.01 32.8882C113.645 32.8882 114.931 31.5466 114.931 29.9133C114.931 28.2801 113.645 26.9385 112.01 26.9385C110.373 26.9385 109.088 28.2801 109.088 29.9133C109.088 31.5466 110.373 32.8882 112.01 32.8882ZM111.133 22.2428C112.915 22.2428 114.288 22.9136 114.902 23.7011V17.3726C114.902 16.9934 115.223 16.7018 115.574 16.7018H119.284C119.664 16.7018 119.956 16.9934 119.956 17.3726V36.4462C119.956 36.8254 119.664 37.117 119.284 37.117H115.632C115.252 37.117 114.96 36.8254 114.96 36.4462V36.0088C114.23 36.9131 112.944 37.5544 111.221 37.5544C107.54 37.5544 104.005 34.609 104.005 29.8548C104.005 25.1013 107.51 22.2428 111.133 22.2428Z" fill="#7A7E8B"/>
<path fill-rule="evenodd" clip-rule="evenodd" d="M128.633 32.8882C130.269 32.8882 131.554 31.5466 131.554 29.9133C131.554 28.2801 130.269 26.9385 128.633 26.9385C126.997 26.9385 125.711 28.2801 125.711 29.9133C125.711 31.5466 126.997 32.8882 128.633 32.8882ZM127.756 22.2428C129.538 22.2428 130.911 22.9136 131.525 23.7011V17.3726C131.525 16.9934 131.847 16.7018 132.197 16.7018H135.907C136.287 16.7018 136.579 16.9934 136.579 17.3726V36.4462C136.579 36.8254 136.287 37.117 135.907 37.117H132.255C131.876 37.117 131.583 36.8254 131.583 36.4462V36.0088C130.853 36.9131 129.568 37.5544 127.844 37.5544C124.163 37.5544 120.628 34.609 120.628 29.8548C120.628 25.1013 124.134 22.2428 127.756 22.2428Z" fill="#7A7E8B"/>
<path fill-rule="evenodd" clip-rule="evenodd" d="M148.792 39.2167C147.886 42.2792 145.753 44 142.423 44C140.611 44 138.859 43.3874 137.719 42.3959C137.544 42.221 137.427 41.9876 137.427 41.7833C137.427 41.6084 137.515 41.3753 137.661 41.171L139.034 39.0709C139.238 38.7797 139.56 38.7502 139.618 38.7502C139.939 38.7502 140.086 38.8379 140.378 39.0418C140.816 39.3338 141.4 39.6836 142.072 39.6836C142.627 39.6836 143.387 39.4501 143.65 38.5754L144.117 37.117H141.897C141.429 37.117 141.137 36.7963 141.021 36.4171L137.31 23.8178C137.222 23.4972 137.193 23.3223 137.193 23.2056C137.193 22.9136 137.398 22.6805 137.807 22.6805H142.189C142.569 22.6805 142.803 23.0303 142.89 23.3804L145.315 32.4213H145.49L147.448 23.3804C147.535 23.0303 147.769 22.6805 148.149 22.6805H152.59C152.999 22.6805 153.203 22.9136 153.203 23.2056C153.203 23.3223 153.174 23.4972 153.086 23.8178L148.792 39.2167Z" fill="#7A7E8B"/>
<path fill-rule="evenodd" clip-rule="evenodd" d="M44.2437 34.2879C42.4911 36.7377 39.5695 37.5543 36.9985 37.5543C31.0681 37.5543 26.6855 33.092 26.6855 26.9093C26.6855 20.9887 31.4185 16.2643 37.6122 16.2643C42.1987 16.2643 45.8797 18.2182 47.5453 21.9511C47.7496 22.3889 47.8956 23.0888 46.6686 23.3222L43.4257 23.9054C42.6663 24.0512 42.2573 23.5552 42.1113 23.3509C41.1472 22.0387 39.5986 21.1345 37.7287 21.1345C34.4862 21.1345 32.1782 23.6134 32.1782 26.9384C32.1782 30.6131 34.8074 32.7423 37.6413 32.7423C39.5403 32.7423 41.1177 32.0133 42.1404 30.6713H39.2774C38.8684 30.6713 38.5471 30.3506 38.5471 29.9423V27.2009C38.5471 26.7926 38.8684 26.4715 39.2774 26.4715H48.0126C48.4216 26.4715 48.7428 26.7926 48.7428 27.2009V36.3879C48.7428 36.7962 48.4216 37.1169 48.0126 37.1169H44.9743C44.5653 37.1169 44.2437 36.7962 44.2437 36.3879V34.2879Z" fill="#7A7E8B"/>
<path fill-rule="evenodd" clip-rule="evenodd" d="M15.8066 5.42844L15.8497 5.49031C15.8807 5.53498 15.9124 5.57995 15.9442 5.62531L15.9443 5.62532C16.2984 6.12902 16.6862 6.68046 16.6879 7.39163C16.6879 8.00204 16.3879 8.68739 15.6024 9.49654C15.4381 9.66695 15.2125 9.74302 15.0003 9.74302H14.9958C14.6167 9.74302 14.1935 9.49431 14.1901 9.02224C14.1901 8.92231 14.2122 8.81156 14.2525 8.7038C14.3978 8.31041 14.514 7.96363 14.514 7.62431C14.514 7.48783 14.4934 7.34278 14.4512 7.19698C14.2915 6.56821 13.8836 5.9837 13.4731 5.39539C12.9446 4.63806 12.4118 3.87446 12.3983 3.00207C12.3983 2.79736 12.4312 2.59041 12.4958 2.37973C12.5166 2.31549 12.5373 2.25068 12.5581 2.18561C12.7032 1.73134 12.8525 1.26394 13.0453 0.882984C13.2582 0.459391 13.554 0.0995607 14.0187 0.095459C14.2391 0.095459 14.4688 0.181222 14.7291 0.356103C15.0003 0.584679 15.1124 0.939662 15.1124 1.27153C15.1124 1.54709 15.0395 1.81966 14.8438 1.99753C14.499 2.30665 14.4142 2.57773 14.4086 2.81637C14.4086 3.0781 14.5292 3.31144 14.6199 3.48682L14.6199 3.48686L14.62 3.48705C14.6373 3.52047 14.6534 3.55178 14.6675 3.58078C15.0368 4.32367 15.148 4.48329 15.8066 5.42844ZM11.2909 2.25343C11.0762 2.73671 10.8671 3.20746 10.8762 3.65685C10.8762 3.71912 10.8792 3.78139 10.8882 3.83844C10.9544 4.38904 11.2423 4.93621 11.5378 5.4976C11.889 6.16498 12.2507 6.85244 12.2631 7.58963C12.2631 7.93976 12.1746 8.29661 11.9617 8.65495C11.6778 9.11061 11.1321 9.51183 10.4848 9.51519C10.3152 9.51519 10.1441 9.48797 9.96334 9.41898C9.65593 9.30078 9.37056 9.07034 9.36757 8.70454C9.36757 8.66092 9.37206 8.61804 9.38177 8.57329L9.38513 8.54793L9.39522 8.52668C9.53987 8.29061 9.77805 8.22165 9.93756 8.17547C10.0149 8.15309 10.0737 8.13606 10.0944 8.10793C10.3029 7.87339 10.4202 7.63139 10.4202 7.37075C10.4202 7.23763 10.3899 7.09444 10.3219 6.93634C10.1204 6.48052 9.88789 6.06384 9.65911 5.65392L9.65909 5.65388C9.44976 5.2788 9.24359 4.90939 9.06726 4.52081C8.88872 4.23034 8.81177 3.92458 8.81476 3.62292C8.81954 2.90485 9.2002 2.20347 9.56819 1.52544L9.56819 1.52542L9.5682 1.52541C9.68921 1.30245 9.80884 1.08201 9.91329 0.86434C10.174 0.466103 10.6611 0.325527 11.0514 0.321052C11.2143 0.321052 11.3614 0.343798 11.4884 0.401222C11.6113 0.456035 11.7357 0.571256 11.7443 0.748001V0.77112L11.7391 0.775222C11.7258 1.27462 11.5056 1.77029 11.2909 2.25343ZM2.16644 5.35607C2.02786 5.08126 1.98528 4.75722 1.98528 4.40895C1.98528 4.17884 2.00498 3.93885 2.02486 3.6966V3.6966C2.04513 3.44972 2.06558 3.20048 2.06558 2.95695C2.06558 2.68176 2.04243 2.41515 1.95278 2.16644C1.87173 1.96434 1.67264 1.91102 1.50829 1.91102C1.06342 1.92705 0.419844 2.23729 0.255495 2.83166C0.228512 3.07329 0.188582 3.32212 0.148264 3.57338C0.0758424 4.0247 0.00216472 4.48385 5.23779e-06 4.92315C-0.00111533 5.53058 0.177428 6.09176 0.665996 6.55712C0.920755 6.79971 1.18039 7.0251 1.42972 7.24155C1.91737 7.66489 2.36563 8.05402 2.66098 8.47075C2.84288 8.72766 2.94747 8.92529 2.95009 9.152C2.95009 9.30488 2.91161 9.4641 2.8399 9.63749C2.82088 9.6696 2.79716 9.70805 2.77046 9.75134L2.77043 9.7514C2.62566 9.9861 2.39332 10.3628 2.34759 10.6398L2.34311 10.664L2.34759 10.6894C2.34759 10.8441 2.50111 11.0041 2.64118 11.0041C2.64523 11.0041 2.64919 11.0036 2.65339 11.0031C2.6581 11.0025 2.66309 11.0019 2.66882 11.0019C2.7527 10.9975 2.825 10.9805 2.89385 10.9642L2.89386 10.9642C2.96544 10.9474 3.0333 10.9314 3.10659 10.9314H3.10661C3.11855 10.9314 3.12676 10.9314 3.13012 10.9333H3.21491C4.07962 10.9314 4.64364 10.2378 4.79006 9.60095C4.82181 9.45105 4.83189 9.31197 4.83189 9.17661C4.8121 8.12673 4.05696 7.41364 3.32982 6.72699C2.86332 6.28646 2.40833 5.8568 2.16644 5.35607ZM6.66874 4.19435C6.85586 4.46827 7.04562 4.74604 7.21795 5.03129C7.60492 5.66295 7.96201 6.43854 7.96313 7.24658C7.96462 7.7537 7.8141 8.27387 7.4346 8.76122C7.21011 9.00509 6.84406 9.12031 6.50714 9.12329C6.33084 9.12329 6.1579 9.08749 6.01446 8.998C5.86692 8.91149 5.75711 8.74109 5.76346 8.54048C5.76346 8.46627 5.77205 8.38349 5.80081 8.31004C5.90876 7.94312 5.9984 7.61946 5.9984 7.30773C5.99616 7.13695 5.97151 6.97176 5.90876 6.79465L5.90502 6.78607C5.70895 6.16871 5.26849 5.60892 4.82495 5.04524C4.22666 4.28487 3.62278 3.51739 3.60562 2.5919C3.60562 2.4282 3.6299 2.25966 3.66986 2.08776C3.96046 1.00268 5.15312 0.243866 6.289 0.24051C6.66663 0.24051 7.04277 0.327764 7.38641 0.530984C7.49436 0.607052 7.57168 0.72973 7.56906 0.855018C7.55286 1.12786 7.34668 1.26109 7.14683 1.39025L7.13839 1.3957C6.92661 1.52285 6.68419 1.62129 6.50453 1.66976C6.37589 1.72182 6.21956 1.76016 6.07353 1.79598C5.88585 1.84201 5.71516 1.88388 5.64206 1.94532C5.61127 1.96183 5.6072 1.97019 5.60519 1.9743C5.60489 1.97493 5.60463 1.97546 5.60434 1.9759C5.67203 2.73539 6.16068 3.45066 6.66874 4.19435Z" fill="#7A7E8B"/>
<path fill-rule="evenodd" clip-rule="evenodd" d="M3.65387 23.4326C3.65723 23.0403 3.78759 22.5872 3.98257 22.3423C4.13833 22.1491 4.32583 21.9325 4.57871 21.7154L4.79983 22.6458C4.32285 22.8814 3.95605 23.1443 3.65387 23.4326ZM24.3605 18.179C23.5951 17.7819 22.5948 17.5574 21.4929 17.5574C21.486 17.5574 21.4794 17.5579 21.4728 17.5584L21.4728 17.5584C21.4661 17.5588 21.4595 17.5593 21.4526 17.5593C20.4332 15.0103 19.1442 13.109 17.6049 11.9072C15.648 10.3903 13.1283 9.58934 10.3175 9.58934C8.92091 9.58934 7.47911 9.80188 6.04105 10.1733L6.00609 10.0809L6.00608 10.0809C5.91492 9.83986 5.82364 9.59849 5.71534 9.37531C5.6552 9.25076 5.45387 9.17731 5.31529 9.29476C5.19203 9.4111 5.08819 9.62812 5.14534 9.86975C5.18269 10.0528 5.18307 10.2363 5.17336 10.4194C4.37477 10.6662 3.57991 10.9481 2.79999 11.3035L2.39995 11.4899C2.26997 11.5503 2.20049 11.6931 2.23336 11.8326L2.7365 13.9528C2.69706 13.9883 2.65765 14.024 2.61819 14.0599L2.61817 14.0599L2.61815 14.0599C2.43824 14.2232 2.25709 14.3876 2.06565 14.5319C1.85648 14.684 1.82846 15.1341 2.00439 15.1855C2.36335 15.278 2.71408 15.3146 3.06071 15.3194L3.58103 17.5112C3.57711 17.5211 3.57356 17.5314 3.57001 17.5418C3.56646 17.5521 3.56291 17.5625 3.55899 17.5724C3.52582 17.6539 3.48297 17.7368 3.44292 17.8144C3.41171 17.8748 3.3822 17.9319 3.36028 17.9825C3.23888 18.2517 3.47346 18.5631 3.61427 18.4822C3.64921 18.4613 3.68122 18.4363 3.7132 18.4113L3.71321 18.4113C3.73592 18.3935 3.75863 18.3758 3.78236 18.3595L4.35347 20.7661C3.84548 21.1132 3.51081 21.4816 3.2725 21.7993C2.9113 22.28 2.76152 22.8878 2.75704 23.4602C2.75704 23.7898 2.80971 24.1075 2.94156 24.3957C2.9446 24.4024 2.94959 24.4082 2.95459 24.4141C2.9594 24.4198 2.96422 24.4255 2.96733 24.4319C2.83137 24.7954 2.76862 25.1784 2.77011 25.5658C2.77011 25.7176 2.77982 25.8753 2.79252 26.0356C2.85864 26.8944 3.38605 27.5466 4.06624 27.9269C4.67657 28.2666 5.4154 28.431 6.18112 28.4665L8.51339 38.2911C8.53543 38.3825 8.59856 38.4593 8.68521 38.4973C8.72406 38.5149 8.76627 38.5234 8.8081 38.5234C8.85853 38.5234 8.90858 38.5108 8.95378 38.4869L9.56934 38.1506C10.149 37.8332 11.0795 37.2892 12.2221 36.4965C12.6322 36.2134 12.9897 36.0967 13.504 36.0919C13.913 36.0919 14.3773 36.2134 14.9144 36.3555C15.6058 36.5386 16.3895 36.7459 17.3035 36.7534C17.6927 36.7534 18.086 36.7101 18.4715 36.624C19.4666 36.4073 20.2816 35.8148 20.7067 35.0008C20.9879 34.4665 21.1329 33.8538 21.137 33.1778C21.137 33.009 21.1253 32.876 21.1172 32.7839L21.1145 32.7531C21.0933 31.7926 20.5854 30.7791 20.0941 29.7984L20.0941 29.7983L20.0911 29.7924L19.9335 29.4766C19.0874 27.8505 18.9235 27.2464 18.935 27.0219C18.9362 26.9992 18.9369 26.9809 18.9317 26.9772C19.1125 26.8381 19.87 26.5569 20.8579 26.3202C21.3069 26.209 21.735 26.0987 22.0857 25.9846C22.2613 25.9234 22.4338 25.8593 22.5948 25.7623C22.7102 25.7012 22.8077 25.6251 22.9089 25.5166C23.0688 25.3335 23.1573 25.1064 23.1573 24.8745C23.1544 24.3581 23.0513 23.4106 22.8208 22.2345C23.393 22.1297 23.919 21.966 24.3605 21.7397C25.1071 21.3515 25.6895 20.7519 25.7014 19.9592C25.6895 19.1642 25.1071 18.5709 24.3605 18.179ZM4.81029 17.4676C4.9922 17.2468 5.18382 17.0004 5.39486 16.7151L5.44267 16.6521C5.63989 16.3907 5.86363 16.0954 6.08662 16.0954C6.09409 16.0954 6.10156 16.0954 6.10903 16.0961C6.75037 16.1651 7.20644 16.4791 7.73423 16.8426C7.87766 16.9414 8.02632 17.0436 8.18544 17.1462C8.28232 17.2093 8.37847 17.2812 8.47135 17.3506L8.47136 17.3506L8.47417 17.3527L8.47572 17.3539C8.75389 17.562 9.04144 17.7771 9.38109 17.7771C9.42666 17.7771 9.47297 17.773 9.51854 17.7655H9.51966C9.62313 17.7655 9.68289 17.6544 9.74564 17.5369L9.74855 17.5316L9.74856 17.5315C9.78049 17.4725 9.81298 17.4124 9.85322 17.3628L9.85882 17.3565L9.86218 17.3486C9.91852 17.2246 9.84181 17.0976 9.79585 17.0215L9.7957 17.0212L9.7862 17.005C9.7814 16.9969 9.77711 16.9896 9.77366 16.9832C9.74002 16.9152 9.70929 16.8506 9.6798 16.7885L9.64591 16.7173C9.50883 16.4276 9.39042 16.1774 9.1566 15.8754C8.8914 15.5327 8.64189 15.1956 8.40096 14.8697L8.32059 14.7612C8.21015 14.6121 8.09914 14.4622 7.98523 14.3104C8.30496 14.0606 8.65096 13.9442 9.01586 13.8214L9.02101 13.8197C9.19134 13.763 9.36727 13.7041 9.53946 13.6306C9.68476 13.5766 9.78262 13.3264 9.74228 13.1071C9.71651 12.9807 9.62537 12.8845 9.54842 12.8364L9.53535 12.8282L9.51966 12.8271C9.1383 12.7946 8.7827 12.7025 8.33149 12.5194C8.11148 12.4713 7.90418 12.4684 7.7036 12.4657L7.70253 12.4657C7.41232 12.4616 7.13812 12.4578 6.86317 12.3352C6.73402 12.273 6.68842 12.0614 6.6481 11.8743L6.64802 11.874L6.64726 11.8705C6.63633 11.8203 6.62571 11.7715 6.61403 11.7271C6.58677 11.6264 6.55651 11.5298 6.52588 11.4329L6.5083 11.3768C6.50056 11.3522 6.4928 11.3275 6.48517 11.3027C7.83246 10.9664 9.12112 10.7956 10.3168 10.7956C12.8608 10.7956 15.1236 11.5097 16.8609 12.861C18.1312 13.8458 19.2391 15.4428 20.155 17.6074C19.5514 17.707 19.0303 17.8643 18.6052 18.0757C18.0812 18.3297 17.6811 18.6973 17.4458 19.1414C17.3644 19.131 17.2867 19.1276 17.2142 19.1258C16.9868 19.1288 16.7671 19.1646 16.6058 19.1959C16.2498 17.6812 14.6668 16.5865 12.8134 16.5835C10.8356 16.5865 9.19955 17.8241 8.98142 19.4718C7.57585 19.5307 6.41681 19.7481 5.44341 20.1359L4.81029 17.4676ZM4.78975 11.8102C4.39792 11.9482 3.98518 12.1 3.57842 12.276L3.7846 13.1448C4.02067 12.9915 4.20855 12.8547 4.38224 12.7104V12.5496C4.38224 12.5496 4.43938 12.5012 4.45806 12.4859C4.53164 12.4258 4.60784 12.3636 4.64669 12.2942C4.68815 12.135 4.73746 11.9758 4.78975 11.8102Z" fill="#7A7E8B"/>
<path fill-rule="evenodd" clip-rule="evenodd" d="M5.67969 21.1327C6.52422 20.7747 7.62126 20.5641 9.02944 20.4895C9.40371 21.9769 10.9845 23.0545 12.8128 23.059C14.7507 23.0542 16.386 21.8404 16.6385 20.2289H16.6388C16.8588 20.1785 17.0729 20.1487 17.2122 20.1487C17.2256 20.1487 17.2376 20.1491 17.2481 20.1498C17.3269 20.8534 17.8068 21.4545 18.6054 21.8468C19.367 22.2245 20.3658 22.4244 21.4928 22.4244C21.5271 22.4244 21.5604 22.4218 21.5936 22.4195C21.6015 22.4188 21.6089 22.418 21.6168 22.4177C21.8028 23.3458 21.9231 24.2086 21.9414 24.7471C21.7202 24.8548 21.136 25.0058 20.7035 25.1181L20.6845 25.1229C19.7118 25.3735 18.614 25.6565 18.0978 26.1051C17.2466 26.8535 18.0179 28.3692 18.8348 29.9737C19.2158 30.724 19.5482 31.397 19.7428 31.9955C17.9492 31.7307 16.7569 31.2691 15.7584 30.4533C14.7966 29.6695 14.0081 28.5329 13.0952 27.2178C12.9839 27.0567 12.7998 26.9605 12.6029 26.9605C12.4804 26.9605 12.3616 26.9974 12.2604 27.0675C12.1289 27.1559 12.0404 27.292 12.0113 27.4501C11.9818 27.6089 12.0169 27.7689 12.1091 27.9005L12.1652 27.9807C13.0967 29.3234 13.9013 30.4827 14.9976 31.3855C16.1775 32.3509 17.641 32.9243 19.6046 33.1902C19.7331 33.2077 19.8347 33.22 19.9326 33.2316C19.9299 33.9404 19.6913 35.1143 18.2084 35.4521C17.9432 35.5118 17.6571 35.542 17.3571 35.542C16.6601 35.542 15.9583 35.3824 15.3035 35.2097C14.6681 35.0434 14.0772 34.8887 13.4538 34.8887C12.7479 34.8887 12.1282 35.0923 11.504 35.5293C11.1555 35.7691 10.361 36.3146 9.41118 36.8612L5.67969 21.1327Z" fill="#FFFFFE"/>
<path fill-rule="evenodd" clip-rule="evenodd" d="M5.87822 27.4684C5.34744 27.4109 4.88876 27.2756 4.54736 27.0753C4.04908 26.7893 3.80666 26.4426 3.76109 25.9511C3.74914 25.7915 3.74316 25.6685 3.74316 25.5659C3.74802 24.9786 3.8724 24.6095 4.18728 24.2489C4.36881 24.0434 4.63252 23.8417 4.97168 23.6486L5.87822 27.4684Z" fill="#FFFFFE"/>
<path fill-rule="evenodd" clip-rule="evenodd" d="M21.4879 21.4086C20.5365 21.4056 19.6572 21.233 19.0618 20.9335C18.5172 20.6561 18.2412 20.3283 18.2412 19.9592C18.2412 19.5934 18.5172 19.2668 19.0622 18.9878C19.4511 18.7936 19.9796 18.6504 20.5903 18.5747C20.9212 18.5337 21.2032 18.5146 21.4778 18.5146H21.4957C21.5566 18.5146 21.6156 18.5188 21.6743 18.5229C21.712 18.5255 21.7493 18.5284 21.7874 18.5299C22.5984 18.565 23.3742 18.7466 23.9161 19.0277C24.5377 19.351 24.7502 19.7198 24.7416 19.957C24.7502 20.1975 24.5377 20.5659 23.9158 20.8914C23.577 21.0666 23.1295 21.208 22.6223 21.3004C22.223 21.3735 21.8532 21.409 21.4927 21.409L21.4879 21.4086Z" fill="#877DDA"/>
<path fill-rule="evenodd" clip-rule="evenodd" d="M12.8123 22.0344C12.0421 22.0344 11.2917 21.786 10.7542 21.3531C10.2432 20.9351 9.96191 20.39 9.96191 19.818C9.96191 19.2501 10.2436 18.7049 10.7549 18.2832C11.2958 17.8506 12.0462 17.6023 12.8123 17.6023C13.5776 17.6023 14.3288 17.8506 14.8722 18.2835C15.3847 18.7057 15.6675 19.2508 15.6675 19.818C15.6675 20.3896 15.3847 20.9347 14.8715 21.3535C14.3262 21.7924 13.5948 22.0344 12.8123 22.0344Z" fill="#877DDA"/>
<path fill-rule="evenodd" clip-rule="evenodd" d="M4.31112 17.002C4.39441 16.6969 4.4497 16.4016 4.49265 16.1529C4.51207 16.0436 4.53038 15.9333 4.54905 15.821C4.57221 15.6812 4.59612 15.538 4.62264 15.3889C4.64654 15.2893 4.69547 15.1942 4.74777 15.0935C4.784 15.0234 4.82172 14.9511 4.85459 14.8694C4.92556 14.6871 4.91324 14.5044 4.8221 14.3799L4.81687 14.3731L4.81014 14.3679C4.74926 14.3194 4.67418 14.2948 4.58715 14.2948C4.43774 14.2948 4.28983 14.3679 4.21475 14.4115C4.18935 14.4239 4.15499 14.4294 4.11838 14.435C4.087 14.4403 4.05526 14.4455 4.02425 14.4552C3.84907 14.5111 3.66941 14.5391 3.48974 14.5391C3.35714 14.5391 3.22342 14.5238 3.09082 14.4932C3.18121 14.3847 3.29775 14.3224 3.41093 14.2613C3.46472 14.2322 3.51664 14.2042 3.5637 14.1729C3.68622 14.1117 3.81135 14.0484 3.93498 13.9756C4.02911 13.9201 4.152 13.8429 4.26517 13.7377C4.29244 13.715 4.33428 13.699 4.37462 13.6841C4.43475 13.6617 4.50236 13.6363 4.53598 13.5744C4.57296 13.5342 4.61255 13.4969 4.65289 13.4588C4.76457 13.3526 4.88037 13.2433 4.96665 13.0669C5.21243 12.678 5.32411 12.2168 5.43206 11.7704C5.45074 11.6944 5.46904 11.6179 5.48846 11.5415C5.53067 11.3741 5.57773 11.1981 5.63862 11.0243C5.69502 11.1436 5.74918 11.2749 5.80558 11.4274C5.90307 11.6914 5.98338 11.9613 6.06854 12.247C6.16752 12.5803 6.27024 12.9252 6.40284 13.2616C6.40919 13.2884 6.43683 13.347 6.52611 13.347C6.54105 13.347 6.55748 13.3455 6.57392 13.3436C6.58736 13.3421 6.60118 13.3406 6.61463 13.3406C6.64115 13.3406 6.65273 13.3459 6.66394 13.3738L6.69643 13.4544L6.76404 13.4003C6.93213 13.2661 7.12001 13.2478 7.28137 13.2478C7.34561 13.2478 7.40986 13.2508 7.47411 13.2541C7.54022 13.2571 7.60633 13.2605 7.6717 13.2605C7.70718 13.2605 7.74454 13.2575 7.78301 13.2541C7.82074 13.2511 7.85958 13.2478 7.8988 13.2478C7.97463 13.2478 8.06091 13.259 8.14084 13.3313C8.05045 13.3779 7.96155 13.4271 7.87303 13.4756C7.6209 13.6143 7.38297 13.7452 7.13233 13.8246L7.12337 13.8276L7.11515 13.8332C7.02961 13.8921 6.92428 14.0435 6.89739 14.2091C6.87946 14.3187 6.9 14.4183 6.95603 14.4977C6.9945 14.5972 7.0778 14.6539 7.15176 14.7043C7.19845 14.7363 7.24252 14.7662 7.27166 14.8034C7.7606 15.2755 8.19837 15.8307 8.61447 16.5053C8.60961 16.5064 8.60476 16.5068 8.5999 16.5068C8.54537 16.5068 8.48112 16.44 8.41874 16.3759L8.37766 16.3334C8.08183 16.0903 7.78189 15.9225 7.49204 15.7603C7.16744 15.5783 6.83127 15.3904 6.50556 15.1006C6.42227 15.0272 6.33486 14.9903 6.24522 14.9903C6.01326 14.9903 5.82127 15.2274 5.61807 15.4784C5.51498 15.6055 5.40853 15.7371 5.30133 15.8277C5.0604 16.0384 4.86281 16.2957 4.67157 16.5444C4.62413 16.6067 4.57632 16.6686 4.52776 16.7301C4.50535 16.7585 4.48369 16.7875 4.46127 16.8163C4.41122 16.8823 4.36304 16.9453 4.31112 17.0031V17.002Z" fill="#877DDA"/>
<path fill-rule="evenodd" clip-rule="evenodd" d="M153.218 19.1061C153.218 19.0639 153.247 19.0319 153.289 19.0319H155.077C155.119 19.0319 155.148 19.0639 155.148 19.1061V19.3868C155.148 19.429 155.119 19.4577 155.077 19.4577H154.424V21.2173C154.424 21.2591 154.388 21.2915 154.35 21.2915H154.013C153.975 21.2915 153.942 21.2591 153.942 21.2173V19.4577H153.289C153.247 19.4577 153.218 19.429 153.218 19.3868V19.1061Z" fill="#7A7E8B"/>
<path fill-rule="evenodd" clip-rule="evenodd" d="M156.598 20.2262L157.099 19.0964C157.121 19.0445 157.163 19.0319 157.202 19.0319H157.739C157.781 19.0319 157.81 19.0639 157.81 19.1027V21.2207C157.81 21.2624 157.781 21.2915 157.742 21.2915H157.422C157.38 21.2915 157.351 21.2624 157.351 21.2207V19.6225L156.827 20.7848C156.801 20.8429 156.772 20.8556 156.72 20.8556H156.462C156.413 20.8556 156.384 20.8429 156.358 20.7848L155.834 19.6225V21.2207C155.834 21.2624 155.802 21.2915 155.766 21.2915H155.443C155.404 21.2915 155.375 21.2624 155.375 21.2207V19.1027C155.375 19.0639 155.404 19.0319 155.446 19.0319H155.996C156.038 19.0319 156.077 19.0445 156.099 19.0964L156.598 20.2262Z" fill="#7A7E8B"/>
</svg>