<svg xmlns:xlink="http://www.w3.org/1999/xlink" xmlns="http://www.w3.org/2000/svg" width="99" height="40" viewBox="0 0 99 40" fill="none">
<mask id="mask0" mask-type="alpha" maskUnits="userSpaceOnUse" x="0" y="0" width="39" height="40">
<path fill-rule="evenodd" clip-rule="evenodd" d="M0 0.217529H38.7506V39.0857H0V0.217529Z" fill="white"/>
</mask>
<g mask="url(#mask0)">
<path fill-rule="evenodd" clip-rule="evenodd" d="M18.3616 20.5935L7.91034 14.4872C7.65899 14.3391 7.34669 14.3391 7.09328 14.4872C6.84056 14.6354 6.68441 14.9069 6.68441 15.2031V18.4212C6.68441 18.7174 6.84056 18.9903 7.09328 19.1384L10.4149 21.079V29.5023C10.4149 29.7965 10.5704 30.0701 10.8231 30.2182L12.8791 31.4196C13.0065 31.493 13.1476 31.5307 13.288 31.5307C13.4291 31.5307 13.5702 31.493 13.6976 31.4196C13.9496 31.2715 14.1051 30.9986 14.1051 30.7023V23.2376L17.5432 25.2482C17.5466 25.2495 17.5486 25.2502 17.5507 25.2509C17.8027 25.3949 18.1109 25.3935 18.3616 25.2482C18.6143 25.1 18.7705 24.8271 18.7705 24.5316V21.3108C18.7705 21.0159 18.6143 20.7416 18.3616 20.5935ZM18.5383 7.88381C18.2849 7.73639 17.9733 7.73639 17.7198 7.88381L8.7363 13.1343C8.52399 13.2584 8.51988 13.5629 8.73219 13.687C9.9999 14.4242 13.4661 16.447 14.7393 17.1896C14.9523 17.3138 15.2166 17.1581 15.2166 16.9099V14.4776L18.3766 12.6303C18.73 12.4226 18.9472 12.044 18.9472 11.6347V8.60107C18.9472 8.30484 18.791 8.03193 18.5383 7.88381ZM20.3902 12.5357L23.6845 14.4605C23.7016 14.4715 23.7118 14.49 23.7118 14.5092V16.8996C23.7118 17.1519 23.9817 17.311 24.1988 17.1835C25.4788 16.4374 28.9217 14.4283 30.1908 13.6898C30.4052 13.5656 30.4024 13.2571 30.1881 13.1316L21.2086 7.8845C20.9559 7.73639 20.6436 7.73639 20.3902 7.8845C20.1361 8.03262 19.9813 8.30553 19.9813 8.60107V11.8184C19.9813 12.1147 20.1361 12.3876 20.3902 12.5357ZM31.6585 14.4866C31.4051 14.3384 31.0935 14.3384 30.8401 14.4866L20.3902 20.5935C20.1361 20.7423 19.9813 21.0152 19.9813 21.3115V24.5309C19.9813 24.8264 20.1361 25.1 20.3902 25.2482C20.6415 25.3942 20.9491 25.3942 21.2011 25.2509C21.2031 25.2502 21.2052 25.2488 21.2086 25.2482L24.6467 23.237V30.7023C24.6467 30.9979 24.8015 31.2715 25.0542 31.4196C25.1816 31.493 25.3227 31.5307 25.4638 31.5307C25.6049 31.5307 25.7459 31.493 25.8726 31.4196L27.9273 30.2189C28.1807 30.0708 28.3361 29.7965 28.3361 29.5016V21.0804L31.6585 19.1378C31.9112 18.9903 32.0674 18.7167 32.0674 18.4212V15.2038C32.0674 14.9076 31.9112 14.6347 31.6585 14.4866ZM38.7511 19.6514C38.7511 30.3848 30.0764 39.0859 19.3759 39.0859C8.67535 39.0859 0 30.3848 0 19.6514C0 8.91856 8.67535 0.217529 19.3759 0.217529C30.0764 0.217529 38.7511 8.91856 38.7511 19.6514Z" fill="#7A7E8B"/>
</g>
<path fill-rule="evenodd" clip-rule="evenodd" d="M43 11.4886C43 11.2314 43.209 11 43.4698 11H49.8383C54.8755 11 59 15.0371 59 19.9738C59 24.9636 54.8755 29 49.8383 29H43.4698C43.209 29 43 28.7693 43 28.5121V11.4886ZM49.812 25.1949C52.7623 25.1949 54.6679 22.9066 54.6679 19.9738C54.6679 17.0696 52.7623 14.7799 49.812 14.7799H47.0713V25.1949H49.812Z" fill="#7A7E8B"/>
<path fill-rule="evenodd" clip-rule="evenodd" d="M61 17.8134C61 17.483 61.2472 17.2536 61.5435 17.2536H62.7315C63.0292 17.2536 63.1767 17.4063 63.2508 17.6102L63.77 18.9066C64.2644 17.9661 65.1298 17 66.6142 17C67.6533 17 68.4204 17.2799 68.84 17.6102C69.0387 17.7622 69.0387 18.0165 68.9148 18.2453L67.7759 20.5589C67.6533 20.789 67.456 20.9666 67.1334 20.8388C66.9354 20.7621 66.5165 20.6605 66.268 20.6605C65.4019 20.6605 64.7594 21.2969 64.7594 22.2886V28.4409C64.7594 28.7968 64.5614 29 64.1418 29H61.5435C61.2472 29 61 28.7457 61 28.4409V17.8134Z" fill="#7A7E8B"/>
<path fill-rule="evenodd" clip-rule="evenodd" d="M72 13.2631C72 12.0288 72.8788 11 73.988 11C75.0979 11 76 12.0288 76 13.2631C76 14.4715 75.0979 15.4745 73.988 15.4745C72.8788 15.4745 72 14.4715 72 13.2631ZM72.2556 17.6859C72.2556 17.3511 72.4854 17.1198 72.763 17.1198H75.2597C75.5379 17.1198 75.7677 17.3511 75.7677 17.6859V28.4339C75.7677 28.7428 75.5379 29 75.2597 29H72.763C72.4854 29 72.2556 28.7428 72.2556 28.4339V17.6859Z" fill="#7A7E8B"/>
<path fill-rule="evenodd" clip-rule="evenodd" d="M79.6685 20.7604H78.5921C78.2418 20.7604 78 20.5068 78 20.2023V17.845C78 17.5156 78.2418 17.2876 78.5921 17.2876H79.6685V16.3243C79.6685 13.1802 81.4176 11 85.0228 11C86.6378 11 88.2799 11.6339 88.8178 12.1149C89.0061 12.243 89.0596 12.5469 88.9255 12.7743L87.6072 14.9545C87.4717 15.1577 87.1757 15.2342 86.9338 15.1061C86.5301 14.8793 85.9395 14.6513 85.3189 14.6513C83.9193 14.6513 83.7574 15.3865 83.7574 16.3243V17.2876H86.8803C87.2028 17.2876 87.4717 17.5156 87.4717 17.845V20.2023C87.4717 20.5068 87.2028 20.7604 86.8803 20.7604H83.7574V28.4419C83.7574 28.7464 83.462 29 83.1403 29H80.2606C79.9645 29 79.6685 28.7464 79.6685 28.4419V20.7604Z" fill="#7A7E8B"/>
<mask id="mask1" mask-type="alpha" maskUnits="userSpaceOnUse" x="89" y="13" width="10" height="17">
<path fill-rule="evenodd" clip-rule="evenodd" d="M89.6162 13.36H98.1318V29.3706H89.6162V13.36Z" fill="white"/>
</mask>
<g mask="url(#mask1)">
<path fill-rule="evenodd" clip-rule="evenodd" d="M91.049 20.7359H90.1104C89.8394 20.7359 89.6162 20.4789 89.6162 20.1702V17.7807C89.6162 17.4468 89.8394 17.2156 90.1104 17.2156H91.049V13.9264C91.049 13.6177 91.2958 13.36 91.5923 13.36H94.308C94.5809 13.36 94.8015 13.6177 94.8015 13.9264V17.2156H97.099C97.3942 17.2156 97.6409 17.4468 97.6409 17.7807V20.1702C97.6409 20.4789 97.3942 20.7359 97.099 20.7359H94.8015V24.8731C94.8015 25.4395 95.0732 25.6952 95.568 25.6952C95.962 25.6952 96.703 25.515 96.9759 25.4395C97.2718 25.3613 97.5421 25.4898 97.6174 25.7992L98.1116 28.0344C98.1855 28.3941 98.0605 28.5485 97.7411 28.7028C96.9759 29.0367 95.6917 29.3706 94.4808 29.3706C92.309 29.3706 91.049 27.9317 91.049 25.2335V20.7359Z" fill="#7A7E8B"/>
</g>
</svg>